<?xml version="1.0" encoding="UTF-8" standalone="no"?><!DOCTYPE svg PUBLIC "-//W3C//DTD SVG 1.1//EN" "http://www.w3.org/Graphics/SVG/1.1/DTD/svg11.dtd"><svg width="100%" height="100%" viewBox="0 0 2134 2134" version="1.1" xmlns="http://www.w3.org/2000/svg" xmlns:xlink="http://www.w3.org/1999/xlink" xml:space="preserve" xmlns:serif="http://www.serif.com/" style="fill-rule:evenodd;clip-rule:evenodd;stroke-linejoin:round;stroke-miterlimit:2;"><g><g><path d="M1070.83,875c-103.391,0 -187.5,84.108 -187.5,187.5c0,103.392 84.109,187.5 187.5,187.5c103.392,0 187.5,-84.108 187.5,-187.5c0,-103.392 -84.108,-187.5 -187.5,-187.5Z" style="fill:#fff;fill-rule:nonzero;"/></g></g><g><g><path d="M1062.5,0c-585.875,0 -1062.5,476.625 -1062.5,1062.5c0,585.875 476.625,1070.83 1062.5,1070.83c585.875,0 1070.83,-484.958 1070.83,-1070.83c0,-585.875 -484.958,-1062.5 -1070.83,-1062.5Zm445.833,1375c-84.471,0 -158.966,-42.337 -204.237,-106.65c-57.304,64.863 -140.121,106.65 -233.263,106.65c-172.304,0 -312.5,-140.196 -312.5,-312.5c0,-172.304 140.196,-312.5 312.5,-312.5c70.617,0 135.109,24.438 187.5,64.096l0,-1.596c0,-34.546 27.955,-62.5 62.5,-62.5c34.546,0 62.5,27.954 62.5,62.5l0,312.5c0,68.908 56.092,125 125,125c68.909,0 125,-56.092 125,-125c0,-418.296 -276.8,-625 -562.5,-625c-310.179,0 -562.5,252.321 -562.5,562.5c0,310.179 252.321,562.5 562.5,562.5c125,0 243.225,-40.037 341.921,-115.846c65.925,-50.325 141.417,49.021 76.171,99.121c-120.788,92.713 -265.321,141.725 -418.092,141.725c-379.087,0 -687.5,-308.412 -687.5,-687.5c0,-379.087 308.413,-687.5 687.5,-687.5c345.404,0 687.5,254.729 687.5,750c0,137.879 -112.12,250 -250,250Z" style="fill:#fff;fill-rule:nonzero;"/></g></g></svg>